<?xml version="1.0" encoding="UTF-8"?>
<!DOCTYPE svg PUBLIC "-//W3C//DTD SVG 1.1//EN" "http://www.w3.org/Graphics/SVG/1.1/DTD/svg11.dtd">
<svg xmlns="http://www.w3.org/2000/svg" version="1.1" width="800px" height="1000px" style="shape-rendering:geometricPrecision; text-rendering:geometricPrecision; image-rendering:optimizeQuality; fill-rule:evenodd; clip-rule:evenodd" xmlns:xlink="http://www.w3.org/1999/xlink">
<g><path style="opacity:0.999" fill="#f7f4ea" d="M 387.5,151.5 C 443.837,147.903 484.337,171.237 509,221.5C 510.674,225.021 511.84,228.687 512.5,232.5C 562.478,243.493 607.478,264.66 647.5,296C 668.385,313.541 684.718,334.541 696.5,359C 707.167,359.333 717.833,359.667 728.5,360C 747.667,364.5 759.5,376.333 764,395.5C 764.667,553.5 764.667,711.5 764,869.5C 759.5,888.667 747.667,900.5 728.5,905C 509.167,905.667 289.833,905.667 70.5,905C 51.3333,900.5 39.5,888.667 35,869.5C 34.3333,711.5 34.3333,553.5 35,395.5C 39.5,376.333 51.3333,364.5 70.5,360C 81.1667,359.667 91.8333,359.333 102.5,359C 116.997,329.497 137.664,305.163 164.5,286C 203.036,259.24 245.369,240.907 291.5,231C 308.898,186.761 340.898,160.261 387.5,151.5 Z"/></g>
<g><path style="opacity:1" fill="#dd894e" d="M 395.5,164.5 C 442.332,163.981 475.832,184.647 496,226.5C 509.722,265.506 503.389,300.839 477,332.5C 445.673,362.789 409.173,371.289 367.5,358C 320.34,335.867 299.507,298.701 305,246.5C 317.04,199.077 347.206,171.744 395.5,164.5 Z"/></g>
<g><path style="opacity:1" fill="#f3efe5" d="M 390.5,167.5 C 441.731,165.009 476.897,187.342 496,234.5C 506.415,274.013 497.248,308.179 468.5,337C 436.642,362.505 401.642,367.838 363.5,353C 320.328,330.161 301.828,294.328 308,245.5C 319.208,202.121 346.708,176.121 390.5,167.5 Z"/></g>
<g><path style="opacity:1" fill="#42231b" d="M 400.5,195.5 C 407.475,200.513 409.308,207.179 406,215.5C 401.453,219.818 399.287,225.151 399.5,231.5C 398.914,231.291 398.414,230.957 398,230.5C 396.869,223.756 398.869,218.089 404,213.5C 404.167,211.833 404.333,210.167 404.5,208.5C 404.005,203.86 402.671,199.526 400.5,195.5 Z"/></g>
<g><path style="opacity:1" fill="#412119" d="M 405.5,192.5 C 408.292,192.452 410.125,193.785 411,196.5C 420.68,211.37 419.346,225.037 407,237.5C 406.03,240.444 405.196,243.444 404.5,246.5C 403.345,243.554 403.179,240.554 404,237.5C 407.74,233.689 410.74,229.356 413,224.5C 415.142,217.722 414.809,211.055 412,204.5C 410.063,200.286 407.896,196.286 405.5,192.5 Z"/></g>
<g><path style="opacity:1" fill="#42211a" d="M 418.5,203.5 C 420.39,203.297 421.89,203.963 423,205.5C 428.952,212.165 429.952,219.499 426,227.5C 421.803,231.61 417.803,235.944 414,240.5C 413.333,244.5 413.333,248.5 414,252.5C 416,256.5 418,260.5 420,264.5C 420.749,265.635 420.583,266.635 419.5,267.5C 411.745,259.087 409.245,249.42 412,238.5C 414.667,234.5 418,231.167 422,228.5C 424.877,224.211 425.877,219.544 425,214.5C 423.314,210.448 421.148,206.781 418.5,203.5 Z"/></g>
<g><path style="opacity:1" fill="#883e21" d="M 388.5,243.5 C 387.833,243.833 387.167,244.167 386.5,244.5C 378.828,236.138 376.661,226.472 380,215.5C 381.4,212.098 383.567,209.264 386.5,207C 387.332,206.312 387.998,206.479 388.5,207.5C 377.985,219.431 377.985,231.431 388.5,243.5 Z"/></g>
<g><path style="opacity:1" fill="#dc884d" d="M 284.5,248.5 C 285.833,248.5 287.167,248.5 288.5,248.5C 288.5,249.5 288.5,250.5 288.5,251.5C 235.608,261.497 188.941,283.997 148.5,319C 136.757,330.656 127.091,343.823 119.5,358.5C 118.5,359.833 117.5,359.833 116.5,358.5C 126.004,339.366 139.004,322.866 155.5,309C 188.938,282.947 226.272,264.281 267.5,253C 273.414,251.94 279.08,250.44 284.5,248.5 Z"/></g>
<g><path style="opacity:1" fill="#dd894e" d="M 516.5,249.5 C 563.802,260.322 606.469,280.489 644.5,310C 660.425,323.719 673.091,339.885 682.5,358.5C 681.5,359.833 680.5,359.833 679.5,358.5C 669.002,338.165 654.669,320.999 636.5,307C 601.045,280.946 561.711,262.946 518.5,253C 517.027,252.29 516.36,251.124 516.5,249.5 Z"/></g>
<g><path style="opacity:1" fill="#5c291b" d="M 388.5,243.5 C 393.795,249.383 396.128,256.383 395.5,264.5C 394.5,264.5 393.5,264.5 392.5,264.5C 393.36,256.909 391.36,250.242 386.5,244.5C 387.167,244.167 387.833,243.833 388.5,243.5 Z"/></g>
<g><path style="opacity:1" fill="#41211a" d="M 391.5,193.5 C 401.981,200.399 403.148,208.733 395,218.5C 394.065,220.909 393.565,223.409 393.5,226C 396.269,236.713 399.769,247.213 404,257.5C 404.719,261.145 405.219,264.812 405.5,268.5C 404.5,268.5 403.5,268.5 402.5,268.5C 402.469,263.375 401.636,258.375 400,253.5C 396.717,245.935 393.717,238.268 391,230.5C 389.768,222.863 391.768,216.196 397,210.5C 398.684,204.622 397.018,199.955 392,196.5C 391.517,195.552 391.351,194.552 391.5,193.5 Z"/></g>
<g><path style="opacity:1" fill="#411c16" d="M 356.5,264.5 C 346.723,265.484 346.39,266.817 355.5,268.5C 386.42,273.429 417.42,273.762 448.5,269.5C 462.065,267.356 462.398,265.689 449.5,264.5C 441.169,264.042 432.835,263.542 424.5,263C 423.663,261.989 423.33,260.822 423.5,259.5C 434.862,259.891 446.195,260.725 457.5,262C 459.676,262.163 461.509,262.996 463,264.5C 464.493,275.878 462.66,286.545 457.5,296.5C 456.766,295.292 456.433,293.959 456.5,292.5C 454.214,292.405 452.214,291.738 450.5,290.5C 453.067,289.525 455.733,288.858 458.5,288.5C 459.014,286.488 459.18,284.488 459,282.5C 457.833,284.333 456.333,285.833 454.5,287C 450.644,287.177 446.977,287.677 443.5,288.5C 439.58,289.127 436.247,290.793 433.5,293.5C 428.945,297.603 423.945,300.936 418.5,303.5C 411.253,305.198 403.92,305.698 396.5,305C 390.252,302.543 384.252,299.543 378.5,296C 372.189,294.752 365.856,294.085 359.5,294C 364.68,297.378 370.347,299.378 376.5,300C 382.04,303.27 387.707,306.27 393.5,309C 401.202,309.731 408.869,309.564 416.5,308.5C 416.5,309.167 416.833,309.5 417.5,309.5C 403.72,313.9 391.053,311.733 379.5,303C 372.454,301.716 365.788,299.383 359.5,296C 357.098,295.186 354.765,295.353 352.5,296.5C 353.325,297.386 354.325,297.719 355.5,297.5C 354.909,298.151 354.243,298.818 353.5,299.5C 353.624,300.107 353.957,300.44 354.5,300.5C 364.142,314.15 377.142,322.483 393.5,325.5C 391.167,326.167 388.833,326.833 386.5,327.5C 386.768,329.099 386.434,330.432 385.5,331.5C 385.5,329.833 385.5,328.167 385.5,326.5C 359.273,318.247 345.273,300.247 343.5,272.5C 343.667,269.833 343.833,267.167 344,264.5C 347.459,262.34 351.292,261.173 355.5,261C 365.15,260.123 374.817,259.623 384.5,259.5C 384.67,260.822 384.337,261.989 383.5,263C 374.475,263.284 365.475,263.784 356.5,264.5 Z"/></g>
<g><path style="opacity:1" fill="#983d1d" d="M 450.5,285.5 C 450.833,284.833 451.167,284.167 451.5,283.5C 452.848,282.399 454.348,281.399 456,280.5C 456.688,279.668 456.521,279.002 455.5,278.5C 452.85,280.494 449.85,281.494 446.5,281.5C 446.557,280.391 446.89,279.391 447.5,278.5C 449.505,277.961 451.505,277.295 453.5,276.5C 451.905,275.566 450.239,275.566 448.5,276.5C 448.715,274.821 448.048,273.821 446.5,273.5C 451.1,272.666 455.766,271.666 460.5,270.5C 461.414,276.579 459.414,281.412 454.5,285C 453.207,285.49 451.873,285.657 450.5,285.5 Z"/></g>
<g><path style="opacity:1" fill="#cdad96" d="M 446.5,273.5 C 448.048,273.821 448.715,274.821 448.5,276.5C 443.997,276.867 439.664,277.867 435.5,279.5C 435.36,277.876 436.027,276.71 437.5,276C 433.179,275.501 428.846,275.334 424.5,275.5C 431.671,274.642 439.005,273.976 446.5,273.5 Z"/></g>
<g><path style="opacity:1" fill="#957d71" d="M 349.5,271.5 C 347.656,273.279 346.99,275.612 347.5,278.5C 346.527,276.052 346.194,273.385 346.5,270.5C 347.791,270.263 348.791,270.596 349.5,271.5 Z"/></g>
<g><path style="opacity:1" fill="#ebe5db" d="M 349.5,271.5 C 357.73,273.316 366.063,274.482 374.5,275C 391.163,275.5 407.83,275.667 424.5,275.5C 428.846,275.334 433.179,275.501 437.5,276C 436.027,276.71 435.36,277.876 435.5,279.5C 417.306,291.603 398.306,292.77 378.5,283C 371.865,282.028 365.199,281.361 358.5,281C 356.919,280.293 355.419,279.46 354,278.5C 353.333,279.167 353.333,279.833 354,280.5C 355.419,281.46 356.919,282.293 358.5,283C 370.149,282.329 381.149,284.663 391.5,290C 400.833,290.667 410.167,290.667 419.5,290C 422.978,288.76 426.311,287.26 429.5,285.5C 430.338,285.842 430.672,286.508 430.5,287.5C 419.214,296.316 406.548,298.816 392.5,295C 387.38,292.223 382.047,289.89 376.5,288C 369.022,287.943 361.689,286.943 354.5,285C 351.669,283.334 349.336,281.168 347.5,278.5C 346.99,275.612 347.656,273.279 349.5,271.5 Z"/></g>
<g><path style="opacity:1" fill="#cf9a7c" d="M 449.5,264.5 C 462.398,265.689 462.065,267.356 448.5,269.5C 450.401,268.065 450.734,266.398 449.5,264.5 Z"/></g>
<g><path style="opacity:1" fill="#b8876a" d="M 356.5,264.5 C 355.602,265.158 354.602,265.824 353.5,266.5C 354.243,267.182 354.909,267.849 355.5,268.5C 346.39,266.817 346.723,265.484 356.5,264.5 Z"/></g>
<g><path style="opacity:1" fill="#ba6540" d="M 451.5,283.5 C 451.167,284.167 450.833,284.833 450.5,285.5C 445.323,285.863 440.323,287.197 435.5,289.5C 435.5,288.5 435.5,287.5 435.5,286.5C 436.6,285.442 437.934,284.608 439.5,284C 443.486,283.501 447.486,283.334 451.5,283.5 Z"/></g>
<g><path style="opacity:1" fill="#cbad98" d="M 447.5,278.5 C 446.89,279.391 446.557,280.391 446.5,281.5C 440.311,281.339 434.977,283.339 430.5,287.5C 430.672,286.508 430.338,285.842 429.5,285.5C 434.64,281.226 440.64,278.893 447.5,278.5 Z"/></g>
<g><path style="opacity:1" fill="#4d2920" d="M 447.5,278.5 C 440.64,278.893 434.64,281.226 429.5,285.5C 426.311,287.26 422.978,288.76 419.5,290C 410.167,290.667 400.833,290.667 391.5,290C 381.149,284.663 370.149,282.329 358.5,283C 356.919,282.293 355.419,281.46 354,280.5C 353.333,279.833 353.333,279.167 354,278.5C 355.419,279.46 356.919,280.293 358.5,281C 365.199,281.361 371.865,282.028 378.5,283C 398.306,292.77 417.306,291.603 435.5,279.5C 439.664,277.867 443.997,276.867 448.5,276.5C 450.239,275.566 451.905,275.566 453.5,276.5C 451.505,277.295 449.505,277.961 447.5,278.5 Z"/></g>
<g><path style="opacity:1" fill="#4c2820" d="M 427.5,278.5 C 428.289,278.783 428.956,279.283 429.5,280C 425.113,282.264 420.446,283.597 415.5,284C 407.5,284.667 399.5,284.667 391.5,284C 389.579,283.64 387.912,282.806 386.5,281.5C 386.833,281.167 387.167,280.833 387.5,280.5C 389.115,281.154 390.782,281.654 392.5,282C 400.833,282.667 409.167,282.667 417.5,282C 421.163,281.428 424.497,280.262 427.5,278.5 Z"/></g>
<g><path style="opacity:1" fill="#852c13" d="M 450.5,290.5 C 449.167,290.5 447.833,290.5 446.5,290.5C 446.179,288.952 445.179,288.285 443.5,288.5C 446.977,287.677 450.644,287.177 454.5,287C 456.333,285.833 457.833,284.333 459,282.5C 459.18,284.488 459.014,286.488 458.5,288.5C 455.733,288.858 453.067,289.525 450.5,290.5 Z"/></g>
<g><path style="opacity:1" fill="#e3dbd0" d="M 435.5,286.5 C 435.5,287.5 435.5,288.5 435.5,289.5C 428.96,295.863 421.294,300.363 412.5,303C 407.167,303.667 401.833,303.667 396.5,303C 390.252,300.543 384.252,297.543 378.5,294C 370.043,293.323 361.709,291.99 353.5,290C 349.103,288.792 347.269,285.959 348,281.5C 351.154,285.661 355.321,288.161 360.5,289C 365.5,289.333 370.5,289.667 375.5,290C 382.141,292.617 388.807,295.284 395.5,298C 410.639,300.052 423.972,296.219 435.5,286.5 Z"/></g>
<g><path style="opacity:1" fill="#46150d" d="M 446.5,290.5 C 447.833,290.5 449.167,290.5 450.5,290.5C 452.214,291.738 454.214,292.405 456.5,292.5C 456.433,293.959 456.766,295.292 457.5,296.5C 457.5,296.833 457.5,297.167 457.5,297.5C 456.167,297.5 454.833,297.5 453.5,297.5C 454.141,296.518 454.807,295.518 455.5,294.5C 453.048,293.686 450.715,294.186 448.5,296C 441.068,301.037 434.068,306.537 427.5,312.5C 423.954,313.959 420.288,315.126 416.5,316C 398.641,320.068 382.974,316.068 369.5,304C 370.5,303.333 371.5,303.333 372.5,304C 385.095,314.143 399.429,317.476 415.5,314C 419.716,313.28 423.716,311.947 427.5,310C 434.604,303.562 442.27,297.895 450.5,293C 447.406,292.348 444.406,292.682 441.5,294C 435.293,297.606 429.627,301.939 424.5,307C 422.257,308.136 419.924,308.97 417.5,309.5C 416.833,309.5 416.5,309.167 416.5,308.5C 423.623,305.709 429.623,301.375 434.5,295.5C 438.266,293.284 442.266,291.617 446.5,290.5 Z"/></g>
<g><path style="opacity:1" fill="#b7a79e" d="M 350.5,290.5 C 352.359,291.594 354.359,292.427 356.5,293C 354.833,293.667 353.167,293.667 351.5,293C 350.748,292.329 350.414,291.496 350.5,290.5 Z"/></g>
<g><path style="opacity:1" fill="#c2693f" d="M 443.5,288.5 C 445.179,288.285 446.179,288.952 446.5,290.5C 442.266,291.617 438.266,293.284 434.5,295.5C 434.672,294.508 434.338,293.842 433.5,293.5C 436.247,290.793 439.58,289.127 443.5,288.5 Z"/></g>
<g><path style="opacity:1" fill="#8c3014" d="M 453.5,297.5 C 453.167,297.5 452.833,297.5 452.5,297.5C 446.085,301.741 440.085,306.574 434.5,312C 432.114,313.193 429.78,314.36 427.5,315.5C 427.5,314.5 427.5,313.5 427.5,312.5C 434.068,306.537 441.068,301.037 448.5,296C 450.715,294.186 453.048,293.686 455.5,294.5C 454.807,295.518 454.141,296.518 453.5,297.5 Z"/></g>
<g><path style="opacity:1" fill="#cdad96" d="M 433.5,293.5 C 434.338,293.842 434.672,294.508 434.5,295.5C 429.623,301.375 423.623,305.709 416.5,308.5C 417.09,307.234 417.59,305.901 418,304.5C 418.893,305.711 419.726,305.711 420.5,304.5C 420.043,303.702 419.376,303.369 418.5,303.5C 423.945,300.936 428.945,297.603 433.5,293.5 Z"/></g>
<g><path style="opacity:1" fill="#e9e2d6" d="M 418.5,303.5 C 419.376,303.369 420.043,303.702 420.5,304.5C 419.726,305.711 418.893,305.711 418,304.5C 417.59,305.901 417.09,307.234 416.5,308.5C 408.869,309.564 401.202,309.731 393.5,309C 387.707,306.27 382.04,303.27 376.5,300C 370.347,299.378 364.68,297.378 359.5,294C 365.856,294.085 372.189,294.752 378.5,296C 384.252,299.543 390.252,302.543 396.5,305C 403.92,305.698 411.253,305.198 418.5,303.5 Z"/></g>
<g><path style="opacity:1" fill="#c26339" d="M 408.5,322.5 C 408.5,323.5 408.5,324.5 408.5,325.5C 403.5,325.5 398.5,325.5 393.5,325.5C 377.142,322.483 364.142,314.15 354.5,300.5C 355.721,299.535 357.054,299.702 358.5,301C 371.508,316.616 388.175,323.782 408.5,322.5 Z"/></g>
<g><path style="opacity:1" fill="#c15f34" d="M 427.5,312.5 C 427.5,313.5 427.5,314.5 427.5,315.5C 401.481,326.102 379.147,320.935 360.5,300C 358.807,299.153 357.14,298.32 355.5,297.5C 354.325,297.719 353.325,297.386 352.5,296.5C 354.765,295.353 357.098,295.186 359.5,296C 365.788,299.383 372.454,301.716 379.5,303C 391.053,311.733 403.72,313.9 417.5,309.5C 419.924,308.97 422.257,308.136 424.5,307C 429.627,301.939 435.293,297.606 441.5,294C 444.406,292.682 447.406,292.348 450.5,293C 442.27,297.895 434.604,303.562 427.5,310C 423.716,311.947 419.716,313.28 415.5,314C 399.429,317.476 385.095,314.143 372.5,304C 371.5,303.333 370.5,303.333 369.5,304C 382.974,316.068 398.641,320.068 416.5,316C 420.288,315.126 423.954,313.959 427.5,312.5 Z"/></g>
<g><path style="opacity:1" fill="#862c11" d="M 452.5,300.5 C 442.041,316.067 427.375,324.401 408.5,325.5C 408.5,324.5 408.5,323.5 408.5,322.5C 419.165,321.668 428.832,318.168 437.5,312C 441.744,307.085 446.577,302.919 452,299.5C 452.399,299.728 452.565,300.062 452.5,300.5 Z"/></g>
<g><path style="opacity:1" fill="#47150d" d="M 355.5,297.5 C 357.14,298.32 358.807,299.153 360.5,300C 379.147,320.935 401.481,326.102 427.5,315.5C 429.78,314.36 432.114,313.193 434.5,312C 440.085,306.574 446.085,301.741 452.5,297.5C 453.625,298.652 453.625,299.652 452.5,300.5C 452.565,300.062 452.399,299.728 452,299.5C 446.577,302.919 441.744,307.085 437.5,312C 428.832,318.168 419.165,321.668 408.5,322.5C 388.175,323.782 371.508,316.616 358.5,301C 357.054,299.702 355.721,299.535 354.5,300.5C 353.957,300.44 353.624,300.107 353.5,299.5C 354.243,298.818 354.909,298.151 355.5,297.5 Z"/></g>
<g><path style="opacity:1" fill="#381710" d="M 452.5,297.5 C 452.833,297.5 453.167,297.5 453.5,297.5C 454.833,297.5 456.167,297.5 457.5,297.5C 450.382,312.615 438.715,322.282 422.5,326.5C 422.5,328.167 422.5,329.833 422.5,331.5C 431.839,331.334 441.173,331.5 450.5,332C 451.337,333.011 451.67,334.178 451.5,335.5C 419.832,335.667 388.165,335.5 356.5,335C 355.167,334 355.167,333 356.5,332C 366.161,331.5 375.828,331.334 385.5,331.5C 386.434,330.432 386.768,329.099 386.5,327.5C 388.833,326.833 391.167,326.167 393.5,325.5C 398.5,325.5 403.5,325.5 408.5,325.5C 427.375,324.401 442.041,316.067 452.5,300.5C 453.625,299.652 453.625,298.652 452.5,297.5 Z"/></g>
<g><path style="opacity:1" fill="#e6b08c" d="M 730.5,381.5 C 728.391,380.609 726.391,379.442 724.5,378C 727.196,377.851 729.196,379.018 730.5,381.5 Z"/></g>
<g><path style="opacity:1" fill="#db8244" d="M 730.5,381.5 C 741.222,388.918 747.389,399.252 749,412.5C 749.667,558.833 749.667,705.167 749,851.5C 745.626,874.541 732.46,888.041 709.5,892C 502.5,892.667 295.5,892.667 88.5,892C 66.558,887.725 53.7247,874.558 50,852.5C 49.3333,705.5 49.3333,558.5 50,411.5C 51.8883,399.717 57.3883,390.051 66.5,382.5C 66.8333,382.667 67.1667,382.833 67.5,383C 60.2167,390.062 55.3834,398.562 53,408.5C 52.3333,557.5 52.3333,706.5 53,855.5C 57.6157,873.783 69.1157,884.949 87.5,889C 295.833,889.667 504.167,889.667 712.5,889C 731.222,884.278 742.389,872.445 746,853.5C 746.667,705.167 746.667,556.833 746,408.5C 743.395,397.947 738.228,388.947 730.5,381.5 Z"/></g>
</svg>
